<svg width="217" height="60" viewBox="0 0 217 60" fill="none" xmlns="http://www.w3.org/2000/svg">
<path d="M87.052 12.4H88.384V25H87.052V12.4ZM105.57 12.4V25H104.292V14.92L99.3417 23.398H98.7117L93.7617 14.974V25H92.4837V12.4H93.5817L99.0537 21.742L104.472 12.4H105.57ZM117.577 21.634H110.557L109.045 25H107.659L113.419 12.4H114.733L120.493 25H119.089L117.577 21.634ZM117.091 20.554L114.067 13.786L111.043 20.554H117.091ZM131.276 18.7H132.554V23.506C131.966 24.022 131.27 24.418 130.466 24.694C129.662 24.97 128.816 25.108 127.928 25.108C126.668 25.108 125.534 24.832 124.526 24.28C123.518 23.728 122.726 22.966 122.15 21.994C121.574 21.01 121.286 19.912 121.286 18.7C121.286 17.488 121.574 16.396 122.15 15.424C122.726 14.44 123.518 13.672 124.526 13.12C125.534 12.568 126.674 12.292 127.946 12.292C128.906 12.292 129.788 12.448 130.592 12.76C131.396 13.06 132.074 13.51 132.626 14.11L131.798 14.956C130.802 13.972 129.536 13.48 128 13.48C126.98 13.48 126.056 13.708 125.228 14.164C124.412 14.608 123.77 15.232 123.302 16.036C122.834 16.828 122.6 17.716 122.6 18.7C122.6 19.684 122.834 20.572 123.302 21.364C123.77 22.156 124.412 22.78 125.228 23.236C126.044 23.692 126.962 23.92 127.982 23.92C129.278 23.92 130.376 23.596 131.276 22.948V18.7ZM145.234 23.848V25H136.324V12.4H144.964V13.552H137.656V18.034H144.172V19.168H137.656V23.848H145.234ZM94.612 44.804H89.824L88.978 47H84.658L90.166 34.4H94.342L99.85 47H95.458L94.612 44.804ZM93.442 41.744L92.218 38.576L90.994 41.744H93.442ZM112.948 34.4V47H109.456L104.668 41.276V47H100.528V34.4H104.02L108.808 40.124V34.4H112.948ZM127.415 34.4V47H123.923L119.135 41.276V47H114.995V34.4H118.487L123.275 40.124V34.4H127.415ZM136.068 47.288C134.712 47.288 133.494 47.006 132.414 46.442C131.334 45.878 130.488 45.098 129.876 44.102C129.264 43.094 128.958 41.96 128.958 40.7C128.958 39.44 129.264 38.312 129.876 37.316C130.488 36.308 131.334 35.522 132.414 34.958C133.494 34.394 134.712 34.112 136.068 34.112C137.424 34.112 138.642 34.394 139.722 34.958C140.802 35.522 141.648 36.308 142.26 37.316C142.872 38.312 143.178 39.44 143.178 40.7C143.178 41.96 142.872 43.094 142.26 44.102C141.648 45.098 140.802 45.878 139.722 46.442C138.642 47.006 137.424 47.288 136.068 47.288ZM136.068 43.85C136.596 43.85 137.07 43.724 137.49 43.472C137.922 43.208 138.264 42.842 138.516 42.374C138.768 41.894 138.894 41.336 138.894 40.7C138.894 40.064 138.768 39.512 138.516 39.044C138.264 38.564 137.922 38.198 137.49 37.946C137.07 37.682 136.596 37.55 136.068 37.55C135.54 37.55 135.06 37.682 134.628 37.946C134.208 38.198 133.872 38.564 133.62 39.044C133.368 39.512 133.242 40.064 133.242 40.7C133.242 41.336 133.368 41.894 133.62 42.374C133.872 42.842 134.208 43.208 134.628 43.472C135.06 43.724 135.54 43.85 136.068 43.85ZM147.28 37.694H143.59V34.4H155.218V37.694H151.528V47H147.28V37.694ZM164.274 44.804H159.486L158.64 47H154.32L159.828 34.4H164.004L169.512 47H165.12L164.274 44.804ZM163.104 41.744L161.88 38.576L160.656 41.744H163.104ZM172.293 37.694H168.603V34.4H180.231V37.694H176.541V47H172.293V37.694ZM181.335 34.4H185.583V47H181.335V34.4ZM194.234 47.288C192.878 47.288 191.66 47.006 190.58 46.442C189.5 45.878 188.654 45.098 188.042 44.102C187.43 43.094 187.124 41.96 187.124 40.7C187.124 39.44 187.43 38.312 188.042 37.316C188.654 36.308 189.5 35.522 190.58 34.958C191.66 34.394 192.878 34.112 194.234 34.112C195.59 34.112 196.808 34.394 197.888 34.958C198.968 35.522 199.814 36.308 200.426 37.316C201.038 38.312 201.344 39.44 201.344 40.7C201.344 41.96 201.038 43.094 200.426 44.102C199.814 45.098 198.968 45.878 197.888 46.442C196.808 47.006 195.59 47.288 194.234 47.288ZM194.234 43.85C194.762 43.85 195.236 43.724 195.656 43.472C196.088 43.208 196.43 42.842 196.682 42.374C196.934 41.894 197.06 41.336 197.06 40.7C197.06 40.064 196.934 39.512 196.682 39.044C196.43 38.564 196.088 38.198 195.656 37.946C195.236 37.682 194.762 37.55 194.234 37.55C193.706 37.55 193.226 37.682 192.794 37.946C192.374 38.198 192.038 38.564 191.786 39.044C191.534 39.512 191.408 40.064 191.408 40.7C191.408 41.336 191.534 41.894 191.786 42.374C192.038 42.842 192.374 43.208 192.794 43.472C193.226 43.724 193.706 43.85 194.234 43.85ZM215.305 34.4V47H211.813L207.025 41.276V47H202.885V34.4H206.377L211.165 40.124V34.4H215.305Z" fill="white"/>
<rect x="14.108" y="4.48129" width="31.5464" height="51.0375" fill="#FFBE16" fill-opacity="0.15"/>
<rect x="29.8652" width="31.5464" height="51.0375" transform="rotate(31.69 29.8652 0)" fill="#916E18"/>
<rect x="45.6288" y="4.46547" width="31.5464" height="51.0375" transform="rotate(63.3833 45.6288 4.46547)" fill="#FFBE16"/>
</svg>
